<?xml version="1.0" encoding="UTF-8" standalone="no"?>
<!DOCTYPE svg PUBLIC "-//W3C//DTD SVG 1.1//EN"
 "http://www.w3.org/Graphics/SVG/1.1/DTD/svg11.dtd">
<!-- Generated by graphviz version 2.47.0 (20210316.0004)
 -->
<!-- Title: dependencies Pages: 1 -->
<svg width="778pt" height="355pt"
 viewBox="0.00 0.00 778.00 355.00" xmlns="http://www.w3.org/2000/svg" xmlns:xlink="http://www.w3.org/1999/xlink">
<g id="graph0" class="graph" transform="scale(1 1) rotate(0) translate(4 351)">
<title>dependencies</title>
<polygon fill="white" stroke="transparent" points="-4,4 -4,-351 774,-351 774,4 -4,4"/>
<text text-anchor="start" x="364.01" y="-42.4" font-family="Times-12" font-weight="bold" font-size="14.00">Legend</text>
<polygon fill="#ffffb3" stroke="transparent" points="151,-10 151,-30 171,-30 171,-10 151,-10"/>
<text text-anchor="start" x="174.63" y="-15.4" font-family="Times-12" font-size="14.00"> &#160;Declarations</text>
<polygon fill="#8dd3c7" stroke="transparent" points="264,-10 264,-30 284,-30 284,-10 264,-10"/>
<text text-anchor="start" x="287.73" y="-15.4" font-family="Times-12" font-size="14.00"> &#160;Module</text>
<polygon fill="#80b1d3" stroke="transparent" points="350,-10 350,-30 370,-30 370,-10 350,-10"/>
<text text-anchor="start" x="373.78" y="-15.4" font-family="Times-12" font-size="14.00"> &#160;Bootstrap</text>
<polygon fill="#fdb462" stroke="transparent" points="447,-10 447,-30 467,-30 467,-10 447,-10"/>
<text text-anchor="start" x="470.67" y="-15.4" font-family="Times-12" font-size="14.00"> &#160;Providers</text>
<polygon fill="#fb8072" stroke="transparent" points="543,-10 543,-30 563,-30 563,-10 543,-10"/>
<text text-anchor="start" x="566.73" y="-15.4" font-family="Times-12" font-size="14.00"> &#160;Exports</text>
<g id="clust13" class="cluster">
<title>cluster_PostsModule</title>
<polygon fill="none" stroke="black" stroke-dasharray="1,5" points="8,-146 8,-274 160,-274 160,-146 8,-146"/>
</g>
<g id="clust18" class="cluster">
<title>cluster_PostsModule_providers</title>
<polygon fill="none" stroke="black" points="16,-154 16,-206 152,-206 152,-154 16,-154"/>
</g>
<g id="clust1" class="cluster">
<title>cluster_AppModule</title>
<polygon fill="none" stroke="black" stroke-dasharray="1,5" points="168,-146 168,-339 438,-339 438,-146 168,-146"/>
</g>
<g id="clust6" class="cluster">
<title>cluster_AppModule_providers</title>
<polygon fill="none" stroke="black" points="300,-222 300,-274 430,-274 430,-222 300,-222"/>
</g>
<g id="clust3" class="cluster">
<title>cluster_AppModule_imports</title>
<polygon fill="none" stroke="black" points="184,-154 184,-274 292,-274 292,-154 184,-154"/>
</g>
<g id="clust25" class="cluster">
<title>cluster_UsersModule</title>
<polygon fill="none" stroke="black" stroke-dasharray="1,5" points="164,-70 164,-138 312,-138 312,-70 164,-70"/>
</g>
<g id="clust30" class="cluster">
<title>cluster_UsersModule_providers</title>
<polygon fill="none" stroke="black" points="172,-78 172,-130 304,-130 304,-78 172,-78"/>
</g>
<g id="clust19" class="cluster">
<title>cluster_TasksModule</title>
<polygon fill="none" stroke="black" stroke-dasharray="1,5" points="604,-70 604,-206 762,-206 762,-70 604,-70"/>
</g>
<g id="clust24" class="cluster">
<title>cluster_TasksModule_providers</title>
<polygon fill="none" stroke="black" points="612,-78 612,-130 754,-130 754,-78 612,-78"/>
</g>
<g id="clust7" class="cluster">
<title>cluster_AuthModule</title>
<polygon fill="none" stroke="black" stroke-dasharray="1,5" points="446,-146 446,-214 596,-214 596,-146 446,-146"/>
</g>
<g id="clust12" class="cluster">
<title>cluster_AuthModule_providers</title>
<polygon fill="none" stroke="black" points="454,-154 454,-206 588,-206 588,-154 454,-154"/>
</g>
<!-- AuthModule -->
<g id="node1" class="node">
<title>AuthModule</title>
<polygon fill="#8dd3c7" stroke="black" points="283.55,-266 280.55,-270 259.55,-270 256.55,-266 196.45,-266 196.45,-230 283.55,-230 283.55,-266"/>
<text text-anchor="middle" x="240" y="-243.8" font-family="Times,serif" font-size="14.00">AuthModule</text>
</g>
<!-- AppModule -->
<g id="node4" class="node">
<title>AppModule</title>
<polygon fill="#8dd3c7" stroke="black" points="270.66,-331 267.66,-335 246.66,-335 243.66,-331 187.34,-331 187.34,-295 270.66,-295 270.66,-331"/>
<text text-anchor="middle" x="229" y="-308.8" font-family="Times,serif" font-size="14.00">AppModule</text>
</g>
<!-- AuthModule&#45;&gt;AppModule -->
<g id="edge1" class="edge">
<title>AuthModule&#45;&gt;AppModule</title>
<path fill="none" stroke="black" d="M233.53,-266.11C233.53,-266.11 233.53,-284.99 233.53,-284.99"/>
<polygon fill="black" stroke="black" points="230.03,-284.99 233.53,-294.99 237.03,-284.99 230.03,-284.99"/>
</g>
<!-- PostsModule -->
<g id="node2" class="node">
<title>PostsModule</title>
<polygon fill="#8dd3c7" stroke="black" points="139.61,-266 136.61,-270 115.61,-270 112.61,-266 50.39,-266 50.39,-230 139.61,-230 139.61,-266"/>
<text text-anchor="middle" x="95" y="-243.8" font-family="Times,serif" font-size="14.00">PostsModule</text>
</g>
<!-- PostsModule&#45;&gt;AppModule -->
<g id="edge2" class="edge">
<title>PostsModule&#45;&gt;AppModule</title>
<path fill="none" stroke="black" d="M95,-266.02C95,-283.37 95,-307 95,-307 95,-307 177.34,-307 177.34,-307"/>
<polygon fill="black" stroke="black" points="177.34,-310.5 187.34,-307 177.34,-303.5 177.34,-310.5"/>
</g>
<!-- UsersModule -->
<g id="node3" class="node">
<title>UsersModule</title>
<polygon fill="#8dd3c7" stroke="black" points="283.92,-198 280.92,-202 259.92,-202 256.92,-198 192.08,-198 192.08,-162 283.92,-162 283.92,-198"/>
<text text-anchor="middle" x="238" y="-175.8" font-family="Times,serif" font-size="14.00">UsersModule</text>
</g>
<!-- UsersModule&#45;&gt;AuthModule -->
<g id="edge5" class="edge">
<title>UsersModule&#45;&gt;AuthModule</title>
<path fill="none" stroke="black" d="M239.97,-198.22C239.97,-198.22 239.97,-219.73 239.97,-219.73"/>
<polygon fill="black" stroke="black" points="236.47,-219.73 239.97,-229.73 243.47,-219.73 236.47,-219.73"/>
</g>
<!-- UsersModule&#45;&gt;AppModule -->
<g id="edge3" class="edge">
<title>UsersModule&#45;&gt;AppModule</title>
<path fill="none" stroke="black" d="M192,-180C186.88,-180 183.48,-180 183.48,-180 183.48,-180 183.48,-319 183.48,-319 183.48,-319 183.83,-319 183.83,-319"/>
<polygon fill="black" stroke="black" points="177.05,-322.5 187.05,-319 177.05,-315.5 177.05,-322.5"/>
</g>
<!-- AppService -->
<g id="node5" class="node">
<title>AppService</title>
<ellipse fill="#fdb462" stroke="black" cx="365" cy="-248" rx="56.74" ry="18"/>
<text text-anchor="middle" x="365" y="-243.8" font-family="Times,serif" font-size="14.00">AppService</text>
</g>
<!-- AppService&#45;&gt;AppModule -->
<g id="edge4" class="edge">
<title>AppService&#45;&gt;AppModule</title>
<path fill="none" stroke="black" d="M365,-266.11C365,-285.34 365,-313 365,-313 365,-313 280.91,-313 280.91,-313"/>
<polygon fill="black" stroke="black" points="280.91,-309.5 270.91,-313 280.91,-316.5 280.91,-309.5"/>
</g>
<!-- AuthService -->
<g id="node6" class="node">
<title>AuthService</title>
<ellipse fill="#fdb462" stroke="black" cx="521" cy="-180" rx="59.11" ry="18"/>
<text text-anchor="middle" x="521" y="-175.8" font-family="Times,serif" font-size="14.00">AuthService</text>
</g>
<!-- AuthService&#45;&gt;AuthModule -->
<g id="edge6" class="edge">
<title>AuthService&#45;&gt;AuthModule</title>
<path fill="none" stroke="black" d="M461.53,-180C396.77,-180 302.3,-180 302.3,-180 302.3,-180 302.3,-248 302.3,-248 302.3,-248 293.61,-248 293.61,-248"/>
<polygon fill="black" stroke="black" points="293.61,-244.5 283.61,-248 293.61,-251.5 293.61,-244.5"/>
</g>
<!-- PostsService -->
<g id="node7" class="node">
<title>PostsService</title>
<ellipse fill="#fdb462" stroke="black" cx="84" cy="-180" rx="60.27" ry="18"/>
<text text-anchor="middle" x="84" y="-175.8" font-family="Times,serif" font-size="14.00">PostsService</text>
</g>
<!-- PostsService&#45;&gt;PostsModule -->
<g id="edge7" class="edge">
<title>PostsService&#45;&gt;PostsModule</title>
<path fill="none" stroke="black" d="M95,-197.87C95,-197.87 95,-219.54 95,-219.54"/>
<polygon fill="black" stroke="black" points="91.5,-219.54 95,-229.54 98.5,-219.54 91.5,-219.54"/>
</g>
<!-- TasksService -->
<g id="node8" class="node">
<title>TasksService</title>
<ellipse fill="#fdb462" stroke="black" cx="683" cy="-104" rx="62.54" ry="18"/>
<text text-anchor="middle" x="683" y="-99.8" font-family="Times,serif" font-size="14.00">TasksService</text>
</g>
<!-- TasksModule -->
<g id="node9" class="node">
<title>TasksModule</title>
<polygon fill="#8dd3c7" stroke="black" points="729.21,-198 726.21,-202 705.21,-202 702.21,-198 636.79,-198 636.79,-162 729.21,-162 729.21,-198"/>
<text text-anchor="middle" x="683" y="-175.8" font-family="Times,serif" font-size="14.00">TasksModule</text>
</g>
<!-- TasksService&#45;&gt;TasksModule -->
<g id="edge8" class="edge">
<title>TasksService&#45;&gt;TasksModule</title>
<path fill="none" stroke="black" d="M683,-122.01C683,-122.01 683,-151.85 683,-151.85"/>
<polygon fill="black" stroke="black" points="679.5,-151.85 683,-161.85 686.5,-151.85 679.5,-151.85"/>
</g>
<!-- UserService -->
<g id="node10" class="node">
<title>UserService</title>
<ellipse fill="#fdb462" stroke="black" cx="238" cy="-104" rx="58.44" ry="18"/>
<text text-anchor="middle" x="238" y="-99.8" font-family="Times,serif" font-size="14.00">UserService</text>
</g>
<!-- UserService&#45;&gt;UsersModule -->
<g id="edge9" class="edge">
<title>UserService&#45;&gt;UsersModule</title>
<path fill="none" stroke="black" d="M238,-122.01C238,-122.01 238,-151.85 238,-151.85"/>
<polygon fill="black" stroke="black" points="234.5,-151.85 238,-161.85 241.5,-151.85 234.5,-151.85"/>
</g>
</g>
</svg>
